<svg xmlns="http://www.w3.org/2000/svg" version="1.1" xmlns:xlink="http://www.w3.org/1999/xlink" width="200" height="200"><svg xmlns="http://www.w3.org/2000/svg" version="1.1" xmlns:xlink="http://www.w3.org/1999/xlink" viewBox="0 0 200 200"><rect width="200" height="200" fill="url('#gradient')"></rect><defs><linearGradient id="SvgjsLinearGradient1001" gradientTransform="rotate(45 0.5 0.5)"><stop offset="0%" stop-color="#000000"></stop><stop offset="100%" stop-color="#000000"></stop></linearGradient></defs><g><g fill="#ffffff" transform="matrix(3.7296641036017806,0,0,3.7296641036017806,8.695397888152328,126.50363720654958)" stroke="#0e5278" stroke-width="0"><path d="M12.24-14.22L12.24-11.57L7.97-11.57L7.97 0L4.54 0L4.54-11.57L0.35-11.57L0.35-14.22L12.24-14.22ZM19.30-4.82L17.11-4.82L17.11 0L13.68 0L13.68-14.22L19.36-14.22Q20.99-14.22 22.24-13.62Q23.50-13.02 24.18-11.91Q24.87-10.80 24.87-9.39L24.87-9.39Q24.87-7.31 23.38-6.07Q21.89-4.82 19.30-4.82L19.30-4.82ZM17.11-11.57L17.11-7.47L19.36-7.47Q20.35-7.47 20.87-7.97Q21.40-8.47 21.40-9.38L21.40-9.38Q21.40-10.37 20.86-10.97Q20.32-11.56 19.39-11.57L19.39-11.57L17.11-11.57ZM34.03-3.78L34.03-3.78Q34.03-4.53 33.50-4.95Q32.97-5.37 31.63-5.82Q30.29-6.27 29.44-6.69L29.44-6.69Q26.68-8.05 26.68-10.42L26.68-10.42Q26.68-11.60 27.37-12.50Q28.06-13.41 29.32-13.91Q30.58-14.41 32.15-14.41L32.15-14.41Q33.68-14.41 34.90-13.87Q36.11-13.32 36.79-12.31Q37.46-11.30 37.46-10L37.46-10L34.04-10Q34.04-10.87 33.51-11.35Q32.98-11.83 32.07-11.83L32.07-11.83Q31.15-11.83 30.62-11.42Q30.09-11.02 30.09-10.39L30.09-10.39Q30.09-9.84 30.67-9.40Q31.26-8.96 32.73-8.48Q34.21-8.01 35.16-7.46L35.16-7.46Q37.46-6.13 37.46-3.80L37.46-3.80Q37.46-1.93 36.05-0.87Q34.65 0.20 32.20 0.20L32.20 0.20Q30.47 0.20 29.07-0.42Q27.67-1.04 26.96-2.12Q26.25-3.20 26.25-4.61L26.25-4.61L29.69-4.61Q29.69-3.47 30.28-2.92Q30.87-2.38 32.20-2.38L32.20-2.38Q33.05-2.38 33.54-2.75Q34.03-3.12 34.03-3.78ZM42.65-14.22L42.65-2.64L48.61-2.64L48.61 0L39.22 0L39.22-14.22L42.65-14.22Z"></path></g></g></svg><style>@media (prefers-color-scheme: light) { :root { filter: none; } }
@media (prefers-color-scheme: dark) { :root { filter: none; } }
</style></svg>